<svg xmlns="http://www.w3.org/2000/svg" viewBox="0 0 256 256">
  <rect width="256" height="256" rx="28" fill="#E60000"/>
  <path fill="#fff" d="M151.6 63.8c-19.1 0-35.1 10.6-43.8 26.2c-2.8 5.1 1.1 10.9 6.9 10.9h19.8c3.3 0 6.3-1.8 7.8-4.7c3-5.7 8.9-9.6 15.7-9.6c10 0 18.1 8.1 18.1 18.1c0 10-8.1 18.1-18.1 18.1H97.8c-20.9 0-37.8 16.9-37.8 37.8v7.4c0 15.9 12.9 28.8 28.8 28.8h79.6c2.8 0 5-2.2 5-5v-16.9c0-2.8-2.2-5-5-5H92.3c-5.6 0-10.1-4.5-10.1-10.1v-1.7c0-8.8 7.2-16 16-16h53.4c22.6 0 41-18.4 41-41c0-22.7-18.4-41.1-41-41.1z"/>
  <path fill="#fff" d="M74.4 104.1c-10.2 0-18.4 8.2-18.4 18.4v68.6c0 3.2 2.6 5.8 5.8 5.8h14.1c3.2 0 5.8-2.6 5.8-5.8v-68.6c0-10.2-8.2-18.4-18.4-18.4z"/>
</svg>
